<svg width="225" height="63" viewBox="0 0 225 63" fill="none" xmlns="http://www.w3.org/2000/svg">
<path d="M19.2169 48.992C30.2529 48.992 36.6389 42.854 37.3209 35.724H28.2689C27.4009 39.382 24.1769 41.738 19.3409 41.738C12.9549 41.738 9.42088 38.08 9.42088 31.694C9.42088 25.308 12.9549 21.712 19.3409 21.712C24.1769 21.712 27.4009 23.758 28.2689 27.85H37.3209C36.6389 19.914 29.5089 14.458 19.2169 14.458C7.25088 14.458 0.368883 21.526 0.368883 31.694C0.368883 41.676 7.06488 48.992 19.2169 48.992ZM43.1557 48H52.3317V31.818C52.3317 25.618 56.7957 21.712 62.3137 21.712C67.3977 21.712 70.3737 24.626 70.3737 31.446V48H79.5497V27.85C79.5497 19.356 74.2177 14.458 65.2897 14.458C60.6397 14.458 55.4937 16.008 52.3317 20.348V0.879997H43.1557V48ZM92.2689 11.11C95.3689 11.11 97.9109 8.754 97.9109 5.654C97.9109 2.74 95.5549 0.384 92.2689 0.384C89.2929 0.384 86.6889 2.74 86.6889 5.654C86.6889 8.754 89.2929 11.11 92.2689 11.11ZM87.7429 48H96.9189V15.45H87.7429V48ZM104.126 48H113.302V24.502H131.344V48H140.52V15.45H104.126V48ZM175.436 15.45V19.728C172.584 16.256 168.058 14.458 162.788 14.458C151.504 14.458 145.924 21.836 145.924 31.508C145.924 41.8 152.372 48.992 163.16 48.992C168.43 48.992 172.646 47.194 175.436 43.97V46.264C175.312 53.146 172.956 55.936 166.012 55.936C161.114 55.936 157.456 54.2 156.402 51.224H147.412C149.21 58.912 155.906 62.88 166.446 62.88C177.854 62.88 184.612 57.734 184.612 43.66V15.45H175.436ZM175.436 32.81C175.436 38.7 171.158 41.676 165.206 41.676C158.634 41.676 154.666 38.142 154.666 31.632C154.666 25.246 158.572 21.774 165.082 21.774C171.034 21.774 175.436 24.688 175.436 30.206V32.81ZM208.065 48.992C218.481 48.992 224.247 45.52 224.247 38.948C224.247 32.686 218.977 30.64 211.103 28.904C203.663 27.354 199.509 26.486 199.509 24.254C199.509 21.836 203.167 21.154 206.639 21.154C210.421 21.154 214.203 21.96 214.699 25.37H223.503C223.069 18.86 218.047 14.458 207.135 14.458C198.393 14.458 190.953 17.248 191.015 24.192C191.139 30.64 197.525 32.996 207.197 34.98C211.909 35.972 215.381 36.654 215.381 39.072C215.381 41.118 213.025 42.172 208.251 42.172C202.609 42.172 199.013 40.746 197.959 37.336H189.279C189.899 44.28 195.851 48.992 208.065 48.992Z" fill="black"/>
</svg>
