<svg width="131" height="37" viewBox="0 0 131 37" fill="none" xmlns="http://www.w3.org/2000/svg">
<path d="M11.8356 28.576C18.2436 28.576 21.9516 25.012 22.3476 20.872H17.0916C16.5876 22.996 14.7156 24.364 11.9076 24.364C8.19961 24.364 6.14761 22.24 6.14761 18.532C6.14761 14.824 8.19961 12.736 11.9076 12.736C14.7156 12.736 16.5876 13.924 17.0916 16.3H22.3476C21.9516 11.692 17.8116 8.524 11.8356 8.524C4.88761 8.524 0.891609 12.628 0.891609 18.532C0.891609 24.328 4.77961 28.576 11.8356 28.576ZM25.7355 28H31.0635V18.604C31.0635 15.004 33.6555 12.736 36.8595 12.736C39.8115 12.736 41.5395 14.428 41.5395 18.388V28H46.8675V16.3C46.8675 11.368 43.7715 8.524 38.5875 8.524C35.8875 8.524 32.8995 9.424 31.0635 11.944V0.639998H25.7355V28ZM54.2529 6.58C56.0529 6.58 57.5289 5.212 57.5289 3.412C57.5289 1.72 56.1609 0.352 54.2529 0.352C52.5249 0.352 51.0129 1.72 51.0129 3.412C51.0129 5.212 52.5249 6.58 54.2529 6.58ZM51.6249 28H56.9529V9.1H51.6249V28ZM61.1379 28H66.4659V14.356H76.9419V28H82.2699V9.1H61.1379V28ZM102.543 9.1V11.584C100.887 9.568 98.2592 8.524 95.1992 8.524C88.6472 8.524 85.4072 12.808 85.4072 18.424C85.4072 24.4 89.1512 28.576 95.4152 28.576C98.4752 28.576 100.923 27.532 102.543 25.66V26.992C102.471 30.988 101.103 32.608 97.0712 32.608C94.2272 32.608 92.1032 31.6 91.4912 29.872H86.2712C87.3152 34.336 91.2032 36.64 97.3232 36.64C103.947 36.64 107.871 33.652 107.871 25.48V9.1H102.543ZM102.543 19.18C102.543 22.6 100.059 24.328 96.6032 24.328C92.7872 24.328 90.4832 22.276 90.4832 18.496C90.4832 14.788 92.7512 12.772 96.5312 12.772C99.9872 12.772 102.543 14.464 102.543 17.668V19.18ZM121.49 28.576C127.538 28.576 130.886 26.56 130.886 22.744C130.886 19.108 127.826 17.92 123.254 16.912C118.934 16.012 116.522 15.508 116.522 14.212C116.522 12.808 118.646 12.412 120.662 12.412C122.858 12.412 125.054 12.88 125.342 14.86H130.454C130.202 11.08 127.286 8.524 120.95 8.524C115.874 8.524 111.554 10.144 111.59 14.176C111.662 17.92 115.37 19.288 120.986 20.44C123.722 21.016 125.738 21.412 125.738 22.816C125.738 24.004 124.37 24.616 121.598 24.616C118.322 24.616 116.234 23.788 115.622 21.808H110.582C110.942 25.84 114.398 28.576 121.49 28.576Z" fill="white"/>
</svg>
